<svg xmlns="http://www.w3.org/2000/svg" width="10" height="17" viewBox="0 0 10 17">
  <path fill="#FFF" d="M8.50510612,0.00339599757 L6.38855064,0 C4.01067314,0 2.47398423,1.57659187 2.47398423,4.01678593 L2.47398423,5.86879321 L0.345882353,5.86879321 C0.161989084,5.86879321 0.0130745907,6.0178775 0.0130745907,6.20177077 L0.0130745907,8.88511825 C0.0130745907,9.06901152 0.162158884,9.21792602 0.345882353,9.21792602 L2.47398423,9.21792602 L2.47398423,15.988866 C2.47398423,16.1727592 2.62289873,16.3216737 2.806792,16.3216737 L5.58335961,16.3216737 C5.76725288,16.3216737 5.91616737,16.1725894 5.91616737,15.988866 L5.91616737,9.21792602 L8.4044148,9.21792602 C8.58830807,9.21792602 8.73722256,9.06901152 8.73722256,8.88511825 L8.73824136,6.20177077 C8.73824136,6.11347483 8.70309278,6.02891449 8.64077623,5.96642814 C8.57845967,5.90394178 8.49355973,5.86879321 8.4052638,5.86879321 L5.91616737,5.86879321 L5.91616737,4.29882353 C5.91616737,3.54423287 6.09598545,3.16116434 7.07895694,3.16116434 L8.50476653,3.16065494 C8.68848999,3.16065494 8.83740449,3.01157065 8.83740449,2.82784718 L8.83740449,0.33620376 C8.83740449,0.152650091 8.68865979,0.00373559733 8.50510612,0.00339599757 Z" transform="translate(.47)"/>
</svg>
