<svg xmlns="http://www.w3.org/2000/svg" width="14" height="14" viewBox="0 0 14 14">
  <g fill="#FFF">
    <path d="M9.5078573,0 L3.5289436,0 C1.58305148,0 0,1.58305148 0,3.5289436 L0,9.50795676 C0,11.4537494 1.58305148,13.0368009 3.5289436,13.0368009 L9.50795676,13.0368009 C11.4537494,13.0368009 13.0368009,11.4537494 13.0368009,9.50795676 L13.0368009,3.5289436 C13.0368009,1.58305148 11.4537494,0 9.5078573,0 Z M6.51840045,10.0830512 C4.55281468,10.0830512 2.95374966,8.48398622 2.95374966,6.51840045 C2.95374966,4.55281468 4.55281468,2.95374966 6.51840045,2.95374966 C8.48398622,2.95374966 10.0830512,4.55281468 10.0830512,6.51840045 C10.0830512,8.48398622 8.48398622,10.0830512 6.51840045,10.0830512 L6.51840045,10.0830512 Z M10.1682909,3.79441007 C9.58742762,3.79441007 9.11497884,3.32196132 9.11497884,2.741098 C9.11497884,2.16023468 9.58742762,1.68768644 10.1682909,1.68768644 C10.7491543,1.68768644 11.2217025,2.16023468 11.2217025,2.741098 C11.2217025,3.32196132 10.7491543,3.79441007 10.1682909,3.79441007 Z"/>
    <path d="M6.51840045,3.71802257 C4.97433843,3.71802257 3.71802257,4.97423897 3.71802257,6.51840045 C3.71802257,8.06246247 4.97433843,9.31877834 6.51840045,9.31877834 C8.06256193,9.31877834 9.31877834,8.06246247 9.31877834,6.51840045 C9.31877834,4.97423897 8.06256193,3.71802257 6.51840045,3.71802257 Z"/>
  </g>
</svg>
