<svg xmlns="http://www.w3.org/2000/svg" width="14" height="12" viewBox="0 0 14 12">
  <path fill="#FFF" d="M13.7254902,48.3790441 C13.2150735,48.6029412 12.671201,48.751348 12.1041667,48.8234069 C12.6875,48.4751225 13.1327206,47.9278186 13.3420343,47.2681373 C12.7981618,47.592402 12.1976716,47.8214461 11.5577206,47.9492647 C11.041299,47.3993873 10.3052696,47.0588235 9.50232843,47.0588235 C7.94448529,47.0588235 6.69031863,48.3232843 6.69031863,49.8734069 C6.69031863,50.0964461 6.70919118,50.3109069 6.75551471,50.5150735 C4.41617647,50.4009804 2.34620098,49.2797794 0.955637255,47.5718137 C0.712867647,47.9930147 0.570465686,48.4751225 0.570465686,48.9941176 C0.570465686,49.9686275 1.07230392,50.8324755 1.82034314,51.332598 C1.3682598,51.3240196 0.924754902,51.1927696 0.549019608,50.9860294 C0.549019608,50.9946078 0.549019608,51.0057598 0.549019608,51.0169118 C0.549019608,52.3843137 1.52438725,53.520098 2.80343137,53.7817402 C2.57438725,53.8443627 2.3247549,53.8743873 2.06568627,53.8743873 C1.88553922,53.8743873 1.70367647,53.8640931 1.53296569,53.826348 C1.89754902,54.9406863 2.93210784,55.7599265 4.1622549,55.7865196 C3.20490196,56.5354167 1.98933824,56.9866422 0.673406863,56.9866422 C0.442647059,56.9866422 0.221323529,56.976348 0,56.9480392 C1.24644608,57.7518382 2.72365196,58.2107843 4.31666667,58.2107843 C9.49460784,58.2107843 12.3254902,53.9215686 12.3254902,50.2036765 C12.3254902,50.0792892 12.321201,49.9591912 12.3151961,49.839951 C12.873652,49.4436275 13.3428922,48.948652 13.7254902,48.3790441 Z" transform="translate(0 -47)"/>
</svg>
